<?xml version="1.0" encoding="utf-8"?>
<!-- Generator: Adobe Illustrator 16.0.0, SVG Export Plug-In . SVG Version: 6.00 Build 0)  -->
<!DOCTYPE svg PUBLIC "-//W3C//DTD SVG 1.1//EN" "http://www.w3.org/Graphics/SVG/1.1/DTD/svg11.dtd">
<svg version="1.1" id="Capa_1" xmlns="http://www.w3.org/2000/svg" xmlns:xlink="http://www.w3.org/1999/xlink" x="0px" y="0px"
	 width="69px" height="64px" viewBox="0 0 69 64" enable-background="new 0 0 69 64" xml:space="preserve">
<title>boton-mappu-01</title>
<path fill="#FFFFFF" d="M19.467,37.217H29.6V47.65H19.467V37.217z"/>
<path fill="#FFFFFF" d="M29.601,26.784h10.133v10.433H29.601V26.784z"/>
<path fill="#FFFFFF" d="M49.867,26.784H60v10.433H49.867V26.784z"/>
<path fill="#FFFFFF" d="M29.601,5.917h10.133V16.35H29.601V5.917z"/>
<path fill="#FFFFFF" d="M9.334,26.784h10.133v10.433H9.334V26.784z"/>
<path fill="#FFFFFF" d="M29.601,47.65h10.133v10.434H29.601V47.65z"/>
<path fill="#FFFFFF" d="M19.467,16.35H29.6v10.434H19.467V16.35z"/>
<path fill="#FFFFFF" d="M39.732,37.217h10.134V47.65H39.732V37.217z"/>
<path fill="#FFFFFF" d="M39.732,16.35h10.134v10.434H39.732V16.35z"/>
<path fill="#FFFFFF" d="M49.867,5.917H60V16.35H49.867V5.917z"/>
<path fill="#FFFFFF" d="M9.334,5.917h10.133V16.35H9.334V5.917z"/>
<path fill="#FFFFFF" d="M49.867,47.65H60v10.434H49.867V47.65z"/>
<path fill="#FFFFFF" d="M9.334,47.65h10.133v10.434H9.334V47.65z"/>
</svg>
