<?xml version="1.0" encoding="utf-8"?>
<!-- Generator: Adobe Illustrator 21.0.0, SVG Export Plug-In . SVG Version: 6.00 Build 0)  -->
<svg version="1.1" id="Capa_1" xmlns="http://www.w3.org/2000/svg" xmlns:xlink="http://www.w3.org/1999/xlink" x="0px" y="0px"
	 viewBox="0 0 50 50" style="enable-background:new 0 0 50 50;" xml:space="preserve">
<style type="text/css">
	.st0{fill:#FFFFFF;}
	.st1{clip-path:url(#SVGID_4_);}
	.st2{clip-path:url(#SVGID_10_);fill:#FFFFFF;}
	.st3{fill:#FF3202;stroke:#FFFFFF;stroke-width:2;stroke-miterlimit:10;}
</style>
<g>
	<path class="st0" d="M12.9,26.5c3.5,3.5,9.1,3.8,12.9,0.7c0.5-0.4,0.8-0.7,1.4-1.4l0,0c3.2-3.8,3-9.6-0.7-13.1
		c-3.8-3.8-10-3.8-13.8,0.1C9,16.5,9.1,22.7,12.9,26.5z M14.6,14.4c2.8-2.9,7.5-2.9,10.4,0c2.9,2.9,2.9,7.5,0,10.4
		c-2.8,2.9-7.5,2.9-10.4,0C11.7,21.9,11.7,17.3,14.6,14.4z"/>
	<polygon class="st0" points="40,37.5 37.5,40.2 26.9,28.7 28.7,26.9 	"/>
</g>
</svg>
