<?xml version="1.0" encoding="utf-8"?>
<!-- Generator: Adobe Illustrator 21.0.0, SVG Export Plug-In . SVG Version: 6.00 Build 0)  -->
<svg version="1.1" id="Capa_1" xmlns="http://www.w3.org/2000/svg" xmlns:xlink="http://www.w3.org/1999/xlink" x="0px" y="0px"
	 viewBox="0 0 50 50" style="enable-background:new 0 0 50 50;" xml:space="preserve">
<style type="text/css">
	.st0{fill:#FFFFFF;}
	.st1{clip-path:url(#SVGID_4_);}
	.st2{clip-path:url(#SVGID_10_);fill:#FFFFFF;}
	.st3{fill:#FF3202;stroke:#FFFFFF;stroke-width:2;stroke-miterlimit:10;}
</style>
<g>
	<path class="st0" d="M25.3,10L6.5,26.5c0,0,1.2,2.1,3.7,0l1.3-1.1v13.8c0,0,0,0.8,0.8,0.8c1,0,9.3,0,9.3,0l0-7.6
		c0,0-0.1-1.3,1.1-1.3h3.9c1.4,0,1.4,1.3,1.4,1.3l0,7.6c0,0,7.9,0,9.1,0c1,0,1-1,1-1V25.2l1.4,1.3c2.9,2.1,4,0,4,0L25.3,10z
		 M24.9,28.2c-2.2,0-4-1.8-4-4c0-2.2,1.8-4,4-4c2.2,0,4,1.8,4,4C28.8,26.5,27.1,28.2,24.9,28.2z"/>
	<polygon class="st0" points="39.1,21.2 39.1,13.7 35.5,13.7 35.5,18.2 	"/>
	<circle class="st0" cx="24.9" cy="24.3" r="2"/>
</g>
</svg>
