<?xml version="1.0" encoding="utf-8"?>
<!-- Generator: Adobe Illustrator 21.0.0, SVG Export Plug-In . SVG Version: 6.00 Build 0)  -->
<svg version="1.1" id="Capa_1" xmlns="http://www.w3.org/2000/svg" xmlns:xlink="http://www.w3.org/1999/xlink" x="0px" y="0px"
	 viewBox="0 0 50 50" style="enable-background:new 0 0 50 50;" xml:space="preserve">
<style type="text/css">
	.st0{clip-path:url(#SVGID_2_);fill:#FFFFFF;}
	.st1{clip-path:url(#SVGID_4_);fill:#FFFFFF;}
	.st2{clip-path:url(#SVGID_6_);fill:#FFFFFF;}
	.st3{fill:#FFFFFF;}
</style>
<g>
	<g>
		<g>
			<g>
				<defs>
					<path id="SVGID_1_" d="M40,34.1c0,3.2-2.6,5.9-5.9,5.9H15.9c-3.2,0-5.9-2.6-5.9-5.9V15.9c0-3.2,2.6-5.9,5.9-5.9h18.3
						c3.2,0,5.9,2.6,5.9,5.9L40,34.1L40,34.1z"/>
				</defs>
				<clipPath id="SVGID_2_">
					<use xlink:href="#SVGID_1_"  style="overflow:visible;"/>
				</clipPath>
				<rect x="15" y="23" class="st0" width="20" height="3.9"/>
			</g>
			<g>
				<defs>
					<path id="SVGID_3_" d="M40,34.1c0,3.2-2.6,5.9-5.9,5.9H15.9c-3.2,0-5.9-2.6-5.9-5.9V15.9c0-3.2,2.6-5.9,5.9-5.9h18.3
						c3.2,0,5.9,2.6,5.9,5.9L40,34.1L40,34.1z"/>
				</defs>
				<clipPath id="SVGID_4_">
					<use xlink:href="#SVGID_3_"  style="overflow:visible;"/>
				</clipPath>
				<rect x="15" y="15.1" class="st1" width="20" height="3.9"/>
			</g>
			<g>
				<defs>
					<path id="SVGID_5_" d="M40,34.1c0,3.2-2.6,5.9-5.9,5.9H15.9c-3.2,0-5.9-2.6-5.9-5.9V15.9c0-3.2,2.6-5.9,5.9-5.9h18.3
						c3.2,0,5.9,2.6,5.9,5.9L40,34.1L40,34.1z"/>
				</defs>
				<clipPath id="SVGID_6_">
					<use xlink:href="#SVGID_5_"  style="overflow:visible;"/>
				</clipPath>
				<rect x="15" y="30.9" class="st2" width="20" height="3.9"/>
			</g>
			<g>
				<path class="st3" d="M34.1,40.5H15.9c-3.5,0-6.4-2.9-6.4-6.4V15.9c0-3.5,2.9-6.4,6.4-6.4h18.3c3.5,0,6.4,2.9,6.4,6.4v18.7h-0.1
					C40.2,37.9,37.5,40.5,34.1,40.5z M15.9,10.5c-3,0-5.4,2.4-5.4,5.4v18.2c0,3,2.4,5.4,5.4,5.4h18.2c3,0,5.4-2.4,5.4-5.4v-0.5h0.1
					V15.9c0-3-2.4-5.4-5.4-5.4H15.9z"/>
			</g>
		</g>
	</g>
</g>
</svg>
