<?xml version="1.0" encoding="utf-8"?>
<!-- Generator: Adobe Illustrator 21.0.0, SVG Export Plug-In . SVG Version: 6.00 Build 0)  -->
<svg version="1.1" id="Capa_1" xmlns="http://www.w3.org/2000/svg" xmlns:xlink="http://www.w3.org/1999/xlink" x="0px" y="0px"
	 viewBox="0 0 50 50" style="enable-background:new 0 0 50 50;" xml:space="preserve">
<style type="text/css">
	.st0{fill:#FFFFFF;}
	.st1{clip-path:url(#SVGID_4_);}
	.st2{clip-path:url(#SVGID_10_);fill:#FFFFFF;}
	.st3{fill:#FF3202;stroke:#FFFFFF;stroke-width:2;stroke-miterlimit:10;}
</style>
<path class="st0" d="M36.4,10H13.6c-2,0-3.6,1.6-3.6,3.6v22.7c0,2,1.6,3.6,3.6,3.6h22.7c2,0,3.6-1.6,3.6-3.6V13.6
	C40,11.6,38.4,10,36.4,10z M34,20.4c0,0.2,0,0.4,0,0.6c0,6.1-4.7,13.2-13.2,13.2c-2.6,0-5.1-0.8-7.1-2.1c0.4,0,0.7,0.1,1.1,0.1
	c2.2,0,4.2-0.7,5.8-2c-2,0-3.7-1.4-4.3-3.2c0.3,0.1,0.6,0.1,0.9,0.1c0.4,0,0.8-0.1,1.2-0.2c-2.1-0.4-3.7-2.3-3.7-4.6c0,0,0,0,0-0.1
	c0.6,0.3,1.3,0.6,2.1,0.6c-1.2-0.8-2.1-2.3-2.1-3.9c0-0.9,0.2-1.6,0.6-2.3c2.3,2.8,5.7,4.7,9.6,4.9c-0.1-0.3-0.1-0.7-0.1-1.1
	c0-2.6,2.1-4.6,4.6-4.6c1.3,0,2.5,0.6,3.4,1.5c1.1-0.2,2.1-0.6,3-1.1c-0.3,1.1-1.1,2-2,2.6c0.9-0.1,1.8-0.4,2.7-0.7
	C35.7,18.9,34.9,19.7,34,20.4z"/>
</svg>
