<?xml version="1.0" encoding="utf-8"?>
<!-- Generator: Adobe Illustrator 21.0.0, SVG Export Plug-In . SVG Version: 6.00 Build 0)  -->
<svg version="1.1" id="Capa_1" xmlns="http://www.w3.org/2000/svg" xmlns:xlink="http://www.w3.org/1999/xlink" x="0px" y="0px"
	 viewBox="0 0 50 50" style="enable-background:new 0 0 50 50;" xml:space="preserve">
<style type="text/css">
	.st0{fill:#FFFFFF;}
	.st1{clip-path:url(#SVGID_4_);}
	.st2{clip-path:url(#SVGID_10_);fill:#FFFFFF;}
	.st3{fill:#FF3202;stroke:#FFFFFF;stroke-width:2;stroke-miterlimit:10;}
</style>
<g>
	<g>
		<path class="st0" d="M36.4,10H13.6c-2,0-3.6,1.6-3.6,3.6v22.7c0,2,1.6,3.6,3.6,3.6h22.7c2,0,3.6-1.6,3.6-3.6V13.6
			C40,11.6,38.4,10,36.4,10z M27.3,15.1h1.2v5c0,0.2,0,0.3,0.1,0.3c0.1,0.1,0.1,0.1,0.3,0.1c0.1,0,0.2,0,0.4-0.1
			c0.1-0.1,0.3-0.2,0.4-0.4v-5h1.2v6.6h-1.2v-0.8c-0.3,0.3-0.5,0.5-0.7,0.6c-0.2,0.1-0.5,0.2-0.7,0.2c-0.3,0-0.5-0.1-0.6-0.3
			c-0.1-0.2-0.2-0.5-0.2-0.9V15.1z M24.5,14.8c0.5,0,0.9,0.2,1.2,0.5c0.3,0.3,0.5,0.7,0.5,1.2V20c0,0.6-0.1,1-0.4,1.3
			c-0.3,0.3-0.7,0.5-1.3,0.5c-0.5,0-1-0.2-1.3-0.5c-0.3-0.3-0.5-0.8-0.5-1.3l0-3.4c0-0.5,0.2-0.9,0.5-1.2
			C23.5,15,23.9,14.8,24.5,14.8z M19.5,12.6l0.9,3.7h0.1l0.9-3.7h1.4l-1.6,5.3v3.7h-1.4v-3.6l-1.6-5.5H19.5z M35.1,33.9
			c0,1.6-1.3,2.9-2.9,2.9c-2.3,0.1-4.7,0.1-7.1,0.1c-2.4,0-4.8,0-7.1-0.1c-1.6,0-2.9-1.3-2.9-2.9C15,32.7,15,31.4,15,30.1
			c0-1.3,0-2.5,0.1-3.8c0-1.6,1.3-2.9,2.9-2.9c2.2-0.1,4.4-0.1,6.7-0.1c0.1,0,0.2,0,0.4,0c0.1,0,0.2,0,0.4,0c2.3,0,4.5,0.1,6.7,0.1
			c1.6,0,2.9,1.3,2.9,2.9c0.1,1.3,0.1,2.5,0.1,3.8C35.2,31.4,35.2,32.7,35.1,33.9z"/>
		<path class="st0" d="M24.4,20.6c0.2,0,0.3-0.1,0.4-0.2c0.1-0.1,0.1-0.2,0.1-0.4v-3.6c0-0.1,0-0.3-0.1-0.4C24.7,16,24.6,16,24.4,16
			c-0.2,0-0.2,0-0.3,0.1C24,16.2,24,16.3,24,16.5v3.6c0,0.2,0,0.3,0.1,0.4C24.2,20.6,24.3,20.6,24.4,20.6z"/>
	</g>
	<path class="st0" d="M20.8,25.5h-4.2v1.3H18v7.7h1.4v-7.7h1.4V25.5z M23.1,32.9c-0.1,0.1-0.2,0.3-0.4,0.4c-0.1,0.1-0.3,0.1-0.3,0.1
		c-0.1,0-0.2,0-0.3-0.1C22,33.2,22,33.1,22,32.9v-5.1h-1.2v5.5c0,0.4,0.1,0.7,0.2,0.9c0.1,0.2,0.4,0.3,0.6,0.3
		c0.2,0,0.5-0.1,0.7-0.2c0.2-0.1,0.5-0.3,0.7-0.6v0.7h1.2v-6.6h-1.2V32.9z M27.8,27.8c-0.2,0-0.4,0.1-0.6,0.2
		c-0.2,0.1-0.4,0.3-0.5,0.5v-2.9h-1.2v9h1.2V34c0.2,0.2,0.3,0.3,0.5,0.4c0.2,0.1,0.4,0.1,0.6,0.1c0.4,0,0.6-0.1,0.8-0.4
		c0.2-0.2,0.3-0.6,0.3-1.1v-3.7c0-0.5-0.1-0.9-0.3-1.2C28.5,27.9,28.2,27.8,27.8,27.8 M27.8,32.9c0,0.2,0,0.4-0.1,0.5
		c-0.1,0.1-0.2,0.1-0.3,0.1c-0.1,0-0.2,0-0.3-0.1c-0.1,0-0.2-0.1-0.3-0.2v-4.1c0.1-0.1,0.2-0.2,0.3-0.2c0.1,0,0.2-0.1,0.3-0.1
		c0.2,0,0.3,0.1,0.4,0.2c0.1,0.1,0.1,0.3,0.1,0.5V32.9z M33.6,31.3v-1.7c0-0.6-0.2-1.1-0.5-1.4c-0.3-0.3-0.7-0.5-1.3-0.5
		c-0.5,0-1,0.2-1.3,0.5c-0.3,0.4-0.5,0.8-0.5,1.4v3c0,0.6,0.2,1.1,0.5,1.5c0.3,0.4,0.7,0.5,1.3,0.5c0.6,0,1.1-0.2,1.4-0.5
		c0.3-0.3,0.5-0.9,0.5-1.5v-0.5h-1.3v0.5c0,0.4,0,0.6-0.1,0.8c-0.1,0.1-0.2,0.2-0.4,0.2c-0.2,0-0.3-0.1-0.4-0.2
		c-0.1-0.1-0.1-0.4-0.1-0.7v-1.2H33.6z M31.2,29.6c0-0.3,0-0.5,0.1-0.6c0.1-0.1,0.2-0.2,0.4-0.2c0.2,0,0.3,0.1,0.4,0.2
		c0.1,0.1,0.1,0.3,0.1,0.6v0.7h-1.1V29.6z"/>
</g>
</svg>
